<svg xmlns="http://www.w3.org/2000/svg" data-name="Layer 1" width="802.605" height="507.219"><path d="m706.75 463.87.781-17.577a56.765 56.765 0 0 1 26.478-6.702c-12.717 10.397-11.128 30.438-19.75 44.42a34.144 34.144 0 0 1-25.038 15.778l-10.641 6.515a57.215 57.215 0 0 1 12.06-46.363 55.267 55.267 0 0 1 10.156-9.438c2.549 6.72 5.954 13.366 5.954 13.366ZM168.799 444.61l-25.68-7.776a86.572 86.572 0 0 1 .067-41.654c10.575 22.71 40.792 27.909 58.207 45.916a52.073 52.073 0 0 1 13.888 42.946l5.62 18.181a87.259 87.259 0 0 1-63.976-35.285 84.287 84.287 0 0 1-10.122-18.565c10.892-1.235 21.996-3.764 21.996-3.764Z" fill="#f2f2f2"/><path d="M617.767 503.43a2.038 2.038 0 0 1-.59 1.42 1.988 1.988 0 0 1-1.41.58h-8.04a1.993 1.993 0 0 1-2-2V260.29c0-5.36-1.8-9.71-4.01-9.72h-500.49c-2.22.01-4.01 4.36-4.02 9.72v241.65a2.006 2.006 0 0 1-1.81 1.99c-1.62.16-3.24.3-4.85.43-.04 0-.08.01-.12.01-.88.08-1.76.14-2.64.21h-.01c-.46-.83-.9-1.68-1.35-2.53a2.088 2.088 0 0 1-.22-.93V247.68c0-1.48.06-2.97.16-4.44a56.853 56.853 0 0 1 .75-6.02c1.69-9.29 5.51-15.58 9.85-15.6h509a4.683 4.683 0 0 1 1.84.39 7.174 7.174 0 0 1 2.27 1.59 14.072 14.072 0 0 1 2.23 3.05c2.14 3.77 3.67 9.39 4.21 15.93 0 .06.01.12.01.18.14 1.62.21 3.27.2 4.92l.14 21.43.09 12.78.27 40.1.1 14.24Z" fill="#e6e6e6"/><path d="M432.017 147.486h-51.005a2.721 2.721 0 0 0-2.718 2.725v80.574h56.448V150.21a2.723 2.723 0 0 0-2.725-2.725Zm-25.33 45.782a6.051 6.051 0 0 1-6.024-6.023v-9.294a6.023 6.023 0 0 1 12.046 0v9.294a6.051 6.051 0 0 1-6.023 6.023Z" fill="#ccc"/><path d="M378.12 228.207v7.774a1.523 1.523 0 0 0 1.52 1.52h53.757a1.527 1.527 0 0 0 1.52-1.52v-7.774Z" fill="#3f3d56"/><path d="M516.478 21.742H298.45a7.078 7.078 0 0 0-7.066 7.066v147.127a7.073 7.073 0 0 0 7.066 7.067h218.03a7.073 7.073 0 0 0 7.066-7.067V28.808a7.078 7.078 0 0 0-7.067-7.066Z" fill="#e6e6e6"/><path d="M514.658 26.846H300.271a3.787 3.787 0 0 0-3.78 3.787v143.48a3.786 3.786 0 0 0 3.78 3.78h214.387a3.786 3.786 0 0 0 3.78-3.78V30.633a3.787 3.787 0 0 0-3.78-3.787Z" fill="#fff"/><path d="M472.9 240.206H345.35a2.346 2.346 0 0 1-2.296-2.83l1.98-9.4a2.356 2.356 0 0 1 2.295-1.862H470.92a2.356 2.356 0 0 1 2.296 1.863l1.98 9.4a2.346 2.346 0 0 1-2.297 2.829Z" fill="#ccc"/><rect x="348.235" y="227.806" width="3.928" height="2.357" rx=".488" fill="#e6e6e6"/><rect x="356.092" y="227.806" width="3.928" height="2.357" rx=".488" fill="#e6e6e6"/><rect x="363.948" y="227.806" width="3.928" height="2.357" rx=".488" fill="#e6e6e6"/><rect x="371.805" y="227.806" width="3.928" height="2.357" rx=".488" fill="#e6e6e6"/><rect x="379.662" y="227.806" width="3.928" height="2.357" rx=".488" fill="#e6e6e6"/><rect x="387.519" y="227.806" width="3.928" height="2.357" rx=".488" fill="#e6e6e6"/><rect x="395.375" y="227.806" width="3.928" height="2.357" rx=".488" fill="#e6e6e6"/><rect x="403.232" y="227.806" width="3.928" height="2.357" rx=".488" fill="#e6e6e6"/><rect x="411.089" y="227.806" width="3.928" height="2.357" rx=".488" fill="#e6e6e6"/><rect x="418.946" y="227.806" width="3.928" height="2.357" rx=".488" fill="#e6e6e6"/><rect x="426.802" y="227.806" width="3.928" height="2.357" rx=".488" fill="#e6e6e6"/><rect x="434.659" y="227.806" width="3.928" height="2.357" rx=".488" fill="#e6e6e6"/><rect x="442.516" y="227.806" width="3.928" height="2.357" rx=".488" fill="#e6e6e6"/><rect x="450.373" y="227.806" width="3.928" height="2.357" rx=".488" fill="#e6e6e6"/><rect x="458.229" y="227.806" width="3.928" height="2.357" rx=".488" fill="#e6e6e6"/><rect x="466.086" y="227.806" width="3.928" height="2.357" rx=".488" fill="#e6e6e6"/><rect x="348.142" y="231.735" width="3.928" height="2.357" rx=".488" fill="#e6e6e6"/><rect x="355.999" y="231.735" width="3.928" height="2.357" rx=".488" fill="#e6e6e6"/><rect x="363.855" y="231.735" width="3.928" height="2.357" rx=".488" fill="#e6e6e6"/><rect x="371.712" y="231.735" width="3.928" height="2.357" rx=".488" fill="#e6e6e6"/><rect x="379.569" y="231.735" width="3.928" height="2.357" rx=".488" fill="#e6e6e6"/><rect x="387.426" y="231.735" width="3.928" height="2.357" rx=".488" fill="#e6e6e6"/><rect x="395.283" y="231.735" width="3.928" height="2.357" rx=".488" fill="#e6e6e6"/><rect x="403.139" y="231.735" width="3.928" height="2.357" rx=".488" fill="#e6e6e6"/><rect x="410.996" y="231.735" width="3.928" height="2.357" rx=".488" fill="#e6e6e6"/><rect x="418.853" y="231.735" width="3.928" height="2.357" rx=".488" fill="#e6e6e6"/><rect x="426.71" y="231.735" width="3.928" height="2.357" rx=".488" fill="#e6e6e6"/><rect x="434.566" y="231.735" width="3.928" height="2.357" rx=".488" fill="#e6e6e6"/><rect x="442.423" y="231.735" width="3.928" height="2.357" rx=".488" fill="#e6e6e6"/><rect x="450.28" y="231.735" width="3.928" height="2.357" rx=".488" fill="#e6e6e6"/><rect x="458.137" y="231.735" width="3.928" height="2.357" rx=".488" fill="#e6e6e6"/><rect x="465.993" y="231.735" width="3.928" height="2.357" rx=".488" fill="#e6e6e6"/><rect x="385.854" y="236.449" width="31.427" height="2.357" rx=".488" fill="#e6e6e6"/><path d="M503.881 46.614H303.28a.798.798 0 0 1 0-1.595H503.88a.798.798 0 0 1 0 1.595Z" fill="#cacaca"/><ellipse cx="316.935" cy="36.166" rx="4.675" ry="4.779" fill="#ccc"/><ellipse cx="333.085" cy="36.166" rx="4.675" ry="4.779" fill="#ccc"/><ellipse cx="349.236" cy="36.166" rx="4.675" ry="4.779" fill="#ccc"/><path d="M494.157 32.572h-11.472a.869.869 0 0 0 0 1.737h11.472a.869.869 0 0 0 0-1.737ZM494.157 35.832h-11.472a.869.869 0 0 0 0 1.738h11.472a.869.869 0 0 0 0-1.738ZM494.157 39.089h-11.472a.869.869 0 0 0 0 1.737h11.472a.869.869 0 0 0 0-1.737Z" fill="#ccc"/><path fill="#3f3d56" d="m403.375 58.71-.648-1.893 82.858-43.052.647 1.893-82.857 43.052zM653.375 138.452l-.648-1.893 49.858-42.834.647 1.892-49.857 42.835zM557.585 148.423l-82.858-43.052.648-1.893 82.857 43.052-.647 1.893zM600 118.465l-48.575-79.746 1.535-1.283 48.574 79.746-1.534 1.283zM637.908 14.554l-47.307-.218v-2l47.307.218v2z"/><path d="M723.605 26.96h-53a13 13 0 0 1 0-26h53a13 13 0 0 1 0 26ZM789.605 102.96h-53a13 13 0 0 1 0-26h53a13 13 0 0 1 0 26Z" fill="#bd7381"/><path fill="#3f3d56" d="m703.908 156.553-47.307-.217v-2l47.307.217v2z"/><path d="M789.605 168.96h-53a13 13 0 0 1 0-26h53a13 13 0 0 1 0 26ZM634.605 160h-53a13 13 0 0 1 0-26h53a13 13 0 0 1 0 26ZM562.605 26h-53a13 13 0 0 1 0-26h53a13 13 0 0 1 0 26Z" fill="#bd7381"/><path d="M309.277 249.18h-60a8 8 0 0 0 0 16h22v62h16v-62h22a8 8 0 0 0 0-16Z" fill="#3f3d56"/><path d="M348.878 361.517H188.395a64.805 64.805 0 0 1-63.917-55.636l-5.68-20.895a469.078 469.078 0 0 0-53.182-122.903c-10.747-17.454-16.279-34.35-3.715-50.616l.316-.41c10.077-13.116 60.234-15.955 76.585-16.507q.97-.033 1.946-.033h99.819q.977 0 1.944.033a48.847 48.847 0 0 1 42.237 26.92 50.331 50.331 0 0 1-2.856 51.53c-35.064 52.671-45.8 85.698-34.808 107.086 10.631 20.687 43.22 31.264 102.558 33.285 15.946.543 23.265 12.96 23.316 24.266.05 11.015-6.986 23.176-22.553 23.848q-.758.032-1.527.032Z" fill="#3f3d56"/><path d="M215.657 504.017h60a8 8 0 1 0 0-16h-22v-135h-16v135h-22a8 8 0 0 0 0 16Z" fill="#3f3d56"/><path fill="#a0616a" d="m269.963 449.592 10.336 5.614 27.362-37.831-15.256-8.287-22.442 40.504z"/><path d="m274.938 436.111 18.764 5.876-2.986 7.86 12.867 18.675a5.253 5.253 0 0 1-6.191 7.891l-21.844-8.299-.811-9.206-4.424 7.217-8.236-3.129Z" fill="#2f2e41"/><path d="M296.078 68.076a11.614 11.614 0 0 1-11.86 13.285l-39.852 84.795-12.499-17.43 41.024-80.181a11.677 11.677 0 0 1 23.187-.47Z" fill="#a0616a"/><path d="M163.829 183.3s-1.068 14.814 15.685 17.72 61.539-25.415 68.894-29.764 21.062-59.06 21.062-59.06l-11.92-20.162c-14.718 18.617-26.275 35.784-26.977 47.97Z" fill="#bd7381"/><path d="m183.17 234.327 3.617 15.546s.036 14.335 2.575 16.978c2.52 2.631 57.955-2.651 57.955-2.651s-5.877-23.1-5.8-40.578Z" fill="#a0616a"/><path d="m300.277 433.18-20-11c-.38-26.025 15.273-61.243 33.84-98.132-41.524 7.141-80.697 9.429-114.58.79a21.901 21.901 0 0 1-15.663-26.458q.198-.822.458-1.627c4.055-12.372-5.038-20.128 3.325-33.736 21.997-7.512 42.892-9.634 62-3l11.973 26.471 59.342-7.679a21.882 21.882 0 0 1 24.344 19.294q.12.966.156 1.94c-11.999 56.253-25.454 106.869-45.195 133.137Z" fill="#2f2e41"/><path d="m175.114 135.904 22.86-1.35a4.641 4.641 0 0 1 4.565 2.864l6.46 15.661 26.85 22.192s10.631 13.528 10.656 31 3.772 57.91 3.772 57.91-15.515-21.84-25.092-16.031c-1.629.988-2.202 3.009-3.908 4.03-.852.51-2.818.014-3.678.525-13.196 7.833-26.958 15.486-28.244 14.144-2.524-2.634-5.587-16.097-5.587-16.097l-20.926-76.887a28.477 28.477 0 0 1 4.05-23.962c1.461-2.058 2.993-3.59 4.416-3.843 3.197-.68 1.496-7.844 3.806-10.156Z" fill="#bd7381"/><path fill="#a0616a" d="m369.583 482.16 9.65-6.709-21.861-41.244-14.242 9.902 26.453 38.051z"/><path d="m371.042 454.486-15.124 13.519c-24.048-26.796-42.227-64.376-57.633-107.053-40.366-11.822-70.807-30.888-97.382-53.527-9.016-7.628-15.774-17.428-8.085-26.72q.54-.652 1.126-1.261c9.078-9.33 32.1-7.552 45.585-16.1l30.121 32.197-1.895 8.631 56.578 19.165a21.852 21.852 0 0 1 13.335 28.017q-.318.92-.713 1.812ZM363.957 479.44l15.447-12.165 4.8 6.905 22.678-.069a5.253 5.253 0 0 1 3.015 9.566l-19.187 13.338-8.055-4.531 3.456 7.727-7.234 5.03Z" fill="#2f2e41"/><path d="M208.872 329.673a11.614 11.614 0 0 1-5.19-17.036l-51.754-78.102 21.386-1.626 47.202 76.707a11.677 11.677 0 0 1-11.644 20.057Z" fill="#a0616a"/><path d="M179.115 156.81s-12.103-8.607-23.289 4.199-10.251 65.787-10.356 74.33c-.033 2.676 3.83 8.449 9.153 15.117 2.39 2.994 5.073 6.168 7.83 9.323 1.596 1.826.221 5.627 1.824 7.401 1.593 1.765 6.164 1.505 7.68 3.143a648.149 648.149 0 0 0 13.038 13.694l23.42.288c.264-17.41-11.658-32.95-26.976-47.97Z" fill="#bd7381"/><path d="M155.508 81.008c-2.217 1.6-4.55 3.249-7.256 3.646s-5.873-.912-6.622-3.542c-.915-3.216 1.989-6.144 4.599-8.234l8.276-6.627a20.01 20.01 0 0 1 5.074-3.28 6.762 6.762 0 0 1 5.854.195 6.287 6.287 0 0 1 2.763 5.474 11.687 11.687 0 0 1-2.05 5.996 21.089 21.089 0 0 1-13.69 9.307" fill="#2f2e41"/><path d="M218.277 253.18h-60a8 8 0 0 0 0 16h22v62h16v-62h22a8 8 0 0 0 0-16Z" fill="#3f3d56"/><path d="M159.184 64.224c.242-5.999-6.15-10.748-12.14-10.373s-11.138 4.589-14.535 9.538c-3.395 4.945-5.435 10.673-8.11 16.042s-6.237 10.627-11.553 13.41c-5.315 2.777-12.713 2.282-16.387-2.462a13.208 13.208 0 0 0-1.356 11.865 18.088 18.088 0 0 0 7.938 9.211 20.797 20.797 0 0 0 4.596 2.021 18.715 18.715 0 0 1 2.766-4.975 15.45 15.45 0 0 0-.595 5.507 18.388 18.388 0 0 0 7.49-.118 15.945 15.945 0 0 0 11.062-9.021c2.246-5.318 1.102-11.38 1.582-17.133.477-5.754 3.944-12.322 9.716-12.415 4.397-.073 3.815.29 6.6 3.691" fill="#2f2e41"/><path d="M199.105 95.742a26 26 0 0 1-26 26c-14.36 0-28-16.64-28-31s13.64-21 28-21a26 26 0 0 1 26 26Z" fill="#2f2e41"/><circle cx="379.642" cy="298.989" r="24.805" transform="rotate(-11.564 -689.436 1181.914)" fill="#a0616a"/><path d="M212.105 98.742c-7.343 2.005-14.757 4.107-17.62 0a22.578 22.578 0 0 0-3.11-7.66 31.014 31.014 0 0 1-1.83 7.66c-9.277 2.016-17.947 2.498-25.44 0a14.204 14.204 0 0 0-1.75 6.06 8.551 8.551 0 0 0-1.16-.61 1.919 1.919 0 0 0-1.58-.14 1.364 1.364 0 0 0-.65 1.01 3.772 3.772 0 0 0 .06 1.25 9.503 9.503 0 0 0 1.25 4.06 3.703 3.703 0 0 0 2.51 1.61c1.04 5.85 9.32 13.76 9.32 13.76-25 1-25-15.96-25-32l3-6h10v-13h28a24.006 24.006 0 0 1 24 24Z" fill="#2f2e41"/><path d="m439.94 506.911-438.75.308a1.19 1.19 0 1 1 0-2.382l438.75-.307a1.19 1.19 0 0 1 0 2.381ZM732.94 506.911l-226.75.308a1.19 1.19 0 1 1 0-2.382l226.75-.307a1.19 1.19 0 1 1 0 2.381Z" fill="#cacaca"/><path d="M449.968 148h-85.953a13.539 13.539 0 0 1-13.523-13.523V77.523A13.539 13.539 0 0 1 364.015 64h85.953a13.539 13.539 0 0 1 13.524 13.523v56.954A13.539 13.539 0 0 1 449.968 148Zm-85.953-82a11.537 11.537 0 0 0-11.523 11.523v56.954A11.537 11.537 0 0 0 364.015 146h85.953a11.537 11.537 0 0 0 11.524-11.523V77.523A11.537 11.537 0 0 0 449.968 66Z" fill="#e6e6e6"/><path fill="#e6e6e6" d="M366.491 82h22.991v2h-22.991zM366.491 90h51v2h-51zM366.491 97h51v2h-51zM366.491 104h65v2h-65zM366.491 111h34v2h-34zM366.491 118h62v2h-62zM366.491 125h11v2h-11z"/></svg>