<svg width="128" height="128" viewBox="0 0 128 128" fill="none" xmlns="http://www.w3.org/2000/svg">
<circle cx="64" cy="64" r="64" fill="#FF6368"></circle>
<path d="M80 64C80 68.2435 78.3143 72.3131 75.3137 75.3137C72.3131 78.3143 68.2435 80 64 80C59.7565 80 55.6869 78.3143 52.6863 75.3137C49.6857 72.3131 48 68.2435 48 64C48 59.7565 49.6857 55.6869 52.6863 52.6863C55.6869 49.6857 59.7565 48 64 48C68.2435 48 72.3131 49.6857 75.3137 52.6863C78.3143 55.6869 80 59.7565 80 64V64ZM64 32C55.5131 32 47.3737 35.3714 41.3726 41.3726C35.3714 47.3737 32 55.5131 32 64C32 65.0609 31.5786 66.0783 30.8284 66.8284C30.0783 67.5786 29.0609 68 28 68C26.9391 68 25.9217 67.5786 25.1716 66.8284C24.4214 66.0783 24 65.0609 24 64C24 53.3913 28.2143 43.2172 35.7157 35.7157C43.2172 28.2143 53.3913 24 64 24C65.0609 24 66.0783 24.4214 66.8284 25.1716C67.5786 25.9217 68 26.9391 68 28C68 29.0609 67.5786 30.0783 66.8284 30.8284C66.0783 31.5786 65.0609 32 64 32ZM100 60C101.061 60 102.078 60.4214 102.828 61.1716C103.579 61.9217 104 62.9391 104 64C104 74.6087 99.7857 84.7828 92.2843 92.2843C84.7828 99.7857 74.6087 104 64 104C62.9391 104 61.9217 103.579 61.1716 102.828C60.4214 102.078 60 101.061 60 100C60 98.9391 60.4214 97.9217 61.1716 97.1716C61.9217 96.4214 62.9391 96 64 96C72.4869 96 80.6263 92.6286 86.6274 86.6274C92.6286 80.6263 96 72.4869 96 64C96 62.9391 96.4214 61.9217 97.1716 61.1716C97.9217 60.4214 98.9391 60 100 60Z" fill="black"></path>
</svg>
